<svg width="20" height="20" viewBox="0 0 20 20" fill="none" xmlns="http://www.w3.org/2000/svg">
<path fill-rule="evenodd" clip-rule="evenodd" d="M8.6701 18.6703C3.88752 18.6703 0 14.7824 0 10.0002C0 5.21812 3.88752 1.33014 8.6701 1.33014C10.863 1.33014 12.9212 2.12647 14.5244 3.5964C13.9901 3.91324 13.4749 4.26142 12.9816 4.6391C11.7611 3.65337 10.239 3.11685 8.6701 3.11934C4.87993 3.11934 1.7892 6.21007 1.7892 10.0002C1.7892 13.7904 4.87993 16.8807 8.6701 16.8807C13.9436 16.8807 17.0744 11.2436 14.8063 6.86106C15.2525 6.44601 15.7145 6.04832 16.1914 5.66888C16.9503 6.97917 17.3402 8.46525 17.3402 9.99977C17.3402 14.7824 13.4527 18.6703 8.6701 18.6703Z" fill="#20408E"/>
<path fill-rule="evenodd" clip-rule="evenodd" d="M8.89788 14.4571C8.85207 14.4564 8.8075 14.4421 8.76981 14.4161C8.73211 14.39 8.70298 14.3534 8.68611 14.3108C8.66996 14.2785 7.27108 10.6669 5.10771 9.30034C4.68463 9.04012 4.35936 8.76376 4.48947 8.14552C4.61958 7.5439 5.02605 7.20202 5.75824 7.03962C7.05931 6.76279 8.45865 8.77991 8.97862 9.60946C10.801 6.95842 14.4445 2.79407 19.7475 2.30594C20.0031 2.27595 20.0981 2.6552 19.8615 2.76132C19.7802 2.79361 12.1999 6.25851 9.12533 14.327C9.10235 14.3669 9.06918 14.4 9.02921 14.4228C8.98925 14.4457 8.94392 14.4575 8.89788 14.4571Z" fill="#20408E"/>
</svg>
