<svg width="106" height="45" viewBox="0 0 106 45" fill="none" xmlns="http://www.w3.org/2000/svg">
<path d="M36.9717 7.51712H29.9305L26.285 0.000488281H33.3262L36.9717 7.51712Z" fill="#0066CB"/>
<path d="M33.7051 15.2976H26.0921L22.3155 7.51709H29.9299L33.7051 15.2976Z" fill="#00CCFF"/>
<path d="M76.2526 0L72.7191 7.51614L69.0631 15.2967L65.3224 23.2532L64.3511 25.3191H59.2841L58.2152 23.1155L54.4209 15.2967H61.8884L65.5468 7.51614L69.0803 0H76.2526Z" fill="white"/>
<path d="M58.3904 8.96408H51.3492L48.3717 15.2971L44.619 23.2809L43.6602 25.3196H38.5678L37.5113 23.1417L33.7046 15.2971H41.1975L44.8559 7.51663L47.7052 1.45424L48.3894 0.000488281H54.0406L54.8129 1.592V1.59394L57.6875 7.51663L58.3904 8.96408Z" fill="white"/>
<path d="M11.1163 44.9757L9.5881 40.0498C9.46274 39.6404 9.34025 39.2262 9.22015 38.8071C9.10005 38.388 8.98714 37.9693 8.88187 37.5498H8.83833C8.74216 37.9693 8.63163 38.3855 8.50675 38.7998C8.38139 39.214 8.25172 39.6302 8.11727 40.0498L6.51679 44.9757H3.11389L0 35.1089H2.82585L4.28232 40.0498C4.41677 40.4883 4.54165 40.9389 4.65697 41.4017C4.77228 41.8644 4.87802 42.3102 4.97419 42.739H5.04596C5.14214 42.3102 5.25984 41.8644 5.39955 41.4017C5.53879 40.9389 5.67563 40.4883 5.81056 40.0498L7.36751 35.1089H10.5106L12.0101 40.0498C12.1446 40.5077 12.2742 40.9632 12.3996 41.4162C12.5245 41.8693 12.6398 42.3102 12.7455 42.739H12.7891C12.8848 42.3102 12.9977 41.8717 13.1278 41.4235C13.2575 40.9753 13.3943 40.5174 13.5384 40.0498L14.9948 35.1089H17.7776L14.5479 44.9757H11.1163Z" fill="white"/>
<path d="M23.934 44.9757C22.5593 44.9757 21.5048 44.5736 20.7694 43.7698C20.034 42.9655 19.6665 41.7257 19.6665 40.0498C19.6665 38.3739 20.034 37.1311 20.7694 36.322C21.5048 35.5134 22.5593 35.1089 23.934 35.1089H29.7158V37.1258H24.3235C23.9871 37.1258 23.701 37.1699 23.4656 37.2577C23.2297 37.3455 23.0354 37.4697 22.8818 37.6303C22.7278 37.7908 22.6077 37.9931 22.5211 38.2366C22.4349 38.4806 22.377 38.7537 22.3483 39.0559H29.658V40.9559H22.334C22.3627 41.2775 22.4182 41.5622 22.4995 41.8111C22.5809 42.0594 22.6986 42.269 22.8531 42.4392C23.0067 42.61 23.2038 42.739 23.444 42.8268C23.6842 42.9146 23.9775 42.9588 24.3235 42.9588H29.7158V44.9757H23.934Z" fill="white"/>
<path d="M35.7276 40.7512V42.9287H40.2985C40.7789 42.9287 41.0985 42.8365 41.2573 42.6512C41.4157 42.4664 41.4951 42.1982 41.4951 41.848C41.4951 41.4963 41.4157 41.2261 41.2573 41.0359C41.0985 40.8458 40.7789 40.7512 40.2985 40.7512H35.7276ZM35.7276 37.0239V39.1287H40.0966C40.5578 39.1287 40.8626 39.0389 41.0119 38.8585C41.1607 38.678 41.2353 38.4175 41.2353 38.0761C41.2353 37.7351 41.1607 37.4746 41.0119 37.2941C40.8626 37.1137 40.5578 37.0239 40.0966 37.0239H35.7276ZM33.0889 44.9757V35.1089H40.6444C41.2018 35.1089 41.6846 35.1821 42.0932 35.3281C42.5018 35.4741 42.843 35.6672 43.1172 35.9059C43.3908 36.1445 43.5952 36.422 43.7301 36.7387C43.8641 37.056 43.9315 37.3848 43.9315 37.7253C43.9315 38.0469 43.9076 38.3249 43.8597 38.5582C43.8114 38.7925 43.744 38.9899 43.6578 39.1505C43.5712 39.3115 43.4703 39.4454 43.355 39.5526C43.2396 39.6598 43.1191 39.7476 42.9947 39.8155C43.1674 39.8936 43.3334 39.9935 43.4918 40.1148C43.6507 40.237 43.7899 40.3884 43.91 40.5683C44.0301 40.7488 44.1286 40.9559 44.2057 41.1897C44.2822 41.4235 44.321 41.6913 44.321 41.994C44.321 42.9394 44.042 43.6718 43.4846 44.1937C42.9272 44.7152 42.0669 44.9757 40.9037 44.9757H33.0889Z" fill="white"/>
<path d="M47.3639 44.9757V43.1484H54.0826C54.2946 43.1484 54.4769 43.1334 54.631 43.1048C54.7841 43.0752 54.907 43.0194 54.9984 42.9364C55.0898 42.854 55.1573 42.739 55.2003 42.593C55.2434 42.4465 55.2654 42.2617 55.2654 42.0376C55.2654 41.5797 55.1764 41.2775 54.9984 41.131C54.8204 40.9845 54.5152 40.9118 54.0826 40.9118H51.0118C50.3003 40.9118 49.6993 40.8531 49.2094 40.7367C48.7194 40.6198 48.3204 40.4417 48.0127 40.2026C47.7051 39.9644 47.4816 39.6651 47.3424 39.3042C47.2027 38.9434 47.1333 38.515 47.1333 38.0178C47.1333 37.5207 47.2027 37.0918 47.3424 36.7314C47.4816 36.371 47.7051 36.0688 48.0127 35.8253C48.3204 35.5818 48.7194 35.4014 49.2094 35.2845C49.6993 35.1671 50.3003 35.1089 51.0118 35.1089H57.587V36.9507H51.0118C50.5888 36.9507 50.286 37.0191 50.1037 37.1554C49.9204 37.2917 49.8295 37.5847 49.8295 38.0324C49.8295 38.2565 49.851 38.4413 49.8946 38.5878C49.9376 38.7343 50.007 38.8483 50.1037 38.9312C50.1993 39.0147 50.3218 39.07 50.4711 39.0995C50.6199 39.1287 50.8003 39.1432 51.0118 39.1432H54.0826C54.7841 39.1432 55.3826 39.2019 55.8779 39.3188C56.3726 39.4357 56.774 39.6137 57.0822 39.8519C57.3893 40.091 57.6123 40.3957 57.752 40.7658C57.8913 41.1359 57.9611 41.5695 57.9611 42.0667C57.9611 42.5639 57.8913 42.9947 57.752 43.3604C57.6123 43.7257 57.3893 44.0279 57.0822 44.2665C56.774 44.5052 56.3726 44.6827 55.8779 44.8001C55.3826 44.917 54.7841 44.9757 54.0826 44.9757H47.3639Z" fill="white"/>
<path d="M65.0112 44.9757V37.1258H60.7725V35.1089H71.9467V37.1258H67.7074V44.9757H65.0112Z" fill="white"/>
<path d="M77.6848 35.1089H75.0034V44.9757H77.6848V35.1089Z" fill="white"/>
<path d="M83.7829 41.2334V44.9757H81.1016V39.4061C81.1016 37.9349 81.4666 36.8508 82.1973 36.1537C82.9274 35.4572 83.9848 35.1089 85.3691 35.1089H91.1361V37.1699H85.7729C85.3786 37.1699 85.0542 37.2165 84.7997 37.3087C84.5446 37.4018 84.3427 37.5357 84.1939 37.7103C84.0446 37.8864 83.9413 38.0979 83.8839 38.3467C83.8265 38.5956 83.7925 38.8706 83.7829 39.1728H91.1504V41.2334H83.7829Z" fill="white"/>
<path d="M98.1585 44.9757V41.2047L93.7896 35.1089H96.6589L99.5283 39.231L102.369 35.1089H105.267L100.855 41.2047V44.9757H98.1585Z" fill="white"/>
</svg>
