<svg width="194" height="29" viewBox="0 0 194 29" fill="none" xmlns="http://www.w3.org/2000/svg">
<path d="M16.542 8.53384H8.59483L4.4803 0.000579834H12.4275L16.542 8.53384Z" fill="#0066CB"/>
<path d="M12.855 17.3667H4.26248L-1.90735e-05 8.53384H8.5941L12.855 17.3667Z" fill="#00CCFF"/>
<path d="M60.8771 0L56.8889 8.53271L52.7625 17.3655L48.5405 26.3983L47.4442 28.7436H41.7252L40.5188 26.2419L36.2363 17.3655H44.6647L48.7938 8.53271L52.7819 0H60.8771Z" fill="#010066"/>
<path d="M40.7165 10.1765H32.7694L29.4087 17.3661L25.1732 26.4297L24.091 28.7442H18.3434L17.151 26.2716L12.8545 17.3661H21.3114L25.4406 8.53329L28.6565 1.65095L29.4287 0.000579834H35.8071L36.6787 1.80734V1.80955L39.9232 8.53329L40.7165 10.1765Z" fill="#010066"/>
<path d="M67.4963 22.0684C65.3642 22.0684 63.7286 21.441 62.588 20.1871C61.4474 18.9325 60.8774 16.9983 60.8774 14.3838C60.8774 11.7693 61.4474 9.83055 62.588 8.56833C63.7286 7.30686 65.3642 6.67575 67.4963 6.67575H76.4639V9.82223H68.1004C67.5787 9.82223 67.1349 9.89109 66.7698 10.0281C66.4039 10.165 66.1026 10.3587 65.8644 10.6092C65.6254 10.8597 65.4392 11.1753 65.3049 11.5551C65.1713 11.9358 65.0815 12.3618 65.037 12.8333H76.3741V15.7974H65.0147C65.0592 16.2991 65.1453 16.7433 65.2715 17.1315C65.3976 17.5189 65.5802 17.8458 65.8199 18.1114C66.0581 18.3778 66.3638 18.5791 66.7364 18.7161C67.1089 18.853 67.5638 18.9219 68.1004 18.9219H76.4639V22.0684H67.4963Z" fill="#010066"/>
<path d="M85.145 15.478V18.875H92.2343C92.9794 18.875 93.4751 18.7312 93.7215 18.4421C93.9671 18.1538 94.0903 17.7353 94.0903 17.189C94.0903 16.6404 93.9671 16.2189 93.7215 15.9222C93.4751 15.6256 92.9794 15.478 92.2343 15.478H85.145ZM85.145 9.66332V12.9468H91.9212C92.6365 12.9468 93.1093 12.8068 93.3408 12.5253C93.5716 12.2438 93.6874 11.8374 93.6874 11.3047C93.6874 10.7727 93.5716 10.3663 93.3408 10.0848C93.1093 9.80331 92.6365 9.66332 91.9212 9.66332H85.145ZM81.0522 22.0684V6.67575H92.7709C93.6354 6.67575 94.3842 6.79002 95.018 7.01779C95.6517 7.24557 96.1809 7.54675 96.6061 7.91906C97.0306 8.29137 97.3475 8.72422 97.5567 9.21836C97.7645 9.71326 97.8692 10.2263 97.8692 10.7575C97.8692 11.2593 97.832 11.6929 97.7578 12.0568C97.6829 12.4223 97.5782 12.7303 97.4447 12.9808C97.3103 13.232 97.1538 13.4409 96.9749 13.6081C96.7961 13.7754 96.6091 13.9123 96.4161 14.0183C96.684 14.1401 96.9415 14.296 97.1872 14.4852C97.4335 14.6759 97.6495 14.912 97.8358 15.1927C98.022 15.4742 98.1749 15.7974 98.2944 16.1621C98.4131 16.5268 98.4732 16.9446 98.4732 17.4168C98.4732 18.8916 98.0406 20.0343 97.176 20.8485C96.3115 21.662 94.9772 22.0684 93.1731 22.0684H81.0522Z" fill="#010066"/>
<path d="M103.419 22.0684V19.2178H113.84C114.169 19.2178 114.451 19.1943 114.69 19.1497C114.928 19.1035 115.119 19.0165 115.26 18.8871C115.402 18.7584 115.507 18.5791 115.573 18.3513C115.64 18.1228 115.674 17.8345 115.674 17.4849C115.674 16.7705 115.536 16.2991 115.26 16.0705C114.984 15.842 114.511 15.7285 113.84 15.7285H109.077C107.974 15.7285 107.041 15.6369 106.282 15.4553C105.522 15.2729 104.903 14.9952 104.426 14.6222C103.948 14.2506 103.602 13.7837 103.386 13.2207C103.169 12.6577 103.062 11.9895 103.062 11.2139C103.062 10.4382 103.169 9.76926 103.386 9.20701C103.602 8.64476 103.948 8.17332 104.426 7.79344C104.903 7.41356 105.522 7.13206 106.282 6.94969C107.041 6.76656 107.974 6.67575 109.077 6.67575H119.275V9.54905H109.077C108.421 9.54905 107.951 9.65575 107.669 9.86839C107.384 10.081 107.243 10.5381 107.243 11.2366C107.243 11.5862 107.277 11.8745 107.344 12.103C107.411 12.3315 107.519 12.5094 107.669 12.6388C107.817 12.7689 108.007 12.8552 108.238 12.9014C108.469 12.9468 108.749 12.9695 109.077 12.9695H113.84C114.928 12.9695 115.856 13.061 116.624 13.2434C117.392 13.4258 118.014 13.7035 118.492 14.075C118.969 14.4481 119.314 14.9233 119.531 15.5007C119.747 16.0781 119.855 16.7546 119.855 17.5303C119.855 18.3059 119.747 18.9779 119.531 19.5485C119.314 20.1183 118.969 20.5897 118.492 20.962C118.014 21.3343 117.392 21.6113 116.624 21.7944C115.856 21.9768 114.928 22.0684 113.84 22.0684H103.419Z" fill="#010066"/>
<path d="M131.018 22.0684V9.82223H124.444V6.67575H141.775V9.82223H135.2V22.0684H131.018Z" fill="#010066"/>
<path d="M150.522 6.67575H146.363V22.0684H150.522V6.67575Z" fill="#010066"/>
<path d="M159.269 16.2302V22.0684H155.11V13.3796C155.11 11.0845 155.677 9.39316 156.81 8.30574C157.942 7.21908 159.582 6.67575 161.729 6.67575H170.674V9.89109H162.356C161.744 9.89109 161.241 9.96374 160.846 10.1075C160.451 10.2528 160.137 10.4617 159.907 10.7341C159.675 11.0088 159.515 11.3387 159.426 11.7269C159.337 12.1151 159.284 12.5442 159.269 13.0156H170.696V16.2302H159.269Z" fill="#010066"/>
<path d="M182.061 22.0684V16.1856L175.285 6.67575H179.735L184.186 13.1064L188.591 6.67575H193.086L186.243 16.1856V22.0684H182.061Z" fill="#010066"/>
</svg>
