<svg width="20" height="20" viewBox="0 0 20 20" fill="none" xmlns="http://www.w3.org/2000/svg">
<path opacity="0.2" d="M9.99538 2.49902C8.67885 2.49886 7.38553 2.8454 6.24548 3.50379C5.10543 4.16217 4.15888 5.10919 3.50103 6.24955C2.84318 7.38992 2.49726 8.68339 2.49805 9.99992C2.49883 11.3165 2.84631 12.6095 3.50553 13.7491L2.53177 16.6688C2.49507 16.7788 2.48974 16.8969 2.5164 17.0099C2.54304 17.1228 2.60062 17.2261 2.68266 17.3082C2.76471 17.3902 2.86798 17.4478 2.98091 17.4744C3.09384 17.5011 3.21196 17.4957 3.32203 17.459L6.24172 16.4853C7.23728 17.0609 8.35192 17.3997 9.49937 17.4755C10.6469 17.5514 11.7964 17.3621 12.8591 16.9226C13.9217 16.4831 14.869 15.805 15.6276 14.9407C16.3862 14.0765 16.9359 13.0492 17.2339 11.9386C17.532 10.8279 17.5706 9.6635 17.3466 8.53554C17.1227 7.40762 16.6423 6.3463 15.9424 5.43375C15.2427 4.52119 14.3424 3.78187 13.3111 3.27298C12.2799 2.76409 11.1453 2.49927 9.99538 2.49902ZM11.8695 14.3683C10.2127 14.3683 8.62371 13.7101 7.45219 12.5386C6.28065 11.3671 5.62248 9.77811 5.62248 8.12132C5.62248 7.4586 5.88575 6.82302 6.35436 6.35441C6.82298 5.88579 7.45856 5.62252 8.12128 5.62252L9.37068 8.12132L8.40864 9.56363C8.79029 10.4754 9.51536 11.2005 10.4272 11.5822L11.8695 10.6201L14.3683 11.8695C14.3683 12.5322 14.105 13.1678 13.6364 13.6364C13.1678 14.105 12.5322 14.3683 11.8695 14.3683Z" fill="white"/>
<path d="M14.6479 11.3101L12.1491 10.0607C12.0507 10.0117 11.9412 9.98954 11.8315 9.99637C11.7218 10.0032 11.6159 10.0389 11.5244 10.0997L10.3772 10.865C9.85067 10.5755 9.41738 10.1422 9.12785 9.61564L9.89315 8.46852C9.95404 8.37698 9.98969 8.27108 9.99652 8.1614C10.0034 8.05172 9.98119 7.94218 9.93221 7.84381L8.68281 5.34501C8.63101 5.24043 8.55096 5.15245 8.45176 5.09103C8.35247 5.02962 8.23804 4.99722 8.12133 4.99752C7.29293 4.99752 6.49846 5.32661 5.91269 5.91238C5.32692 6.49814 4.99783 7.29262 4.99783 8.12102C4.9999 9.9429 5.72454 11.6896 7.01279 12.9778C8.30104 14.266 10.0477 14.9906 11.8695 14.9927C12.2798 14.9927 12.6859 14.9119 13.0649 14.7549C13.4438 14.598 13.7881 14.3679 14.0782 14.0779C14.3682 13.7878 14.5983 13.4435 14.7552 13.0646C14.9122 12.6856 14.993 12.2794 14.993 11.8692C14.9931 11.7532 14.9609 11.6394 14.8999 11.5406C14.8389 11.4418 14.7516 11.3621 14.6479 11.3101ZM11.8695 13.7433C10.3789 13.7417 8.94985 13.1488 7.89579 12.0948C6.84177 11.0407 6.24889 9.61164 6.24723 8.12102C6.24711 7.68773 6.39714 7.26778 6.67176 6.93264C6.9464 6.59751 7.32867 6.36787 7.75354 6.28285L8.65 8.07885L7.88707 9.21425C7.83006 9.29979 7.79503 9.39799 7.78509 9.50036C7.77514 9.60264 7.79059 9.70576 7.83006 9.80072C8.27703 10.863 9.1221 11.708 10.1844 12.155C10.2795 12.1962 10.3836 12.2131 10.4869 12.2041C10.5902 12.1951 10.6897 12.1606 10.7763 12.1034L11.9179 11.3429L13.714 12.2394C13.6283 12.6648 13.3975 13.0474 13.0611 13.3217C12.7247 13.596 12.3036 13.745 11.8695 13.7433ZM9.99543 1.87402C8.59336 1.87372 7.21506 2.23642 5.99474 2.92682C4.77442 3.61723 3.75362 4.61181 3.03173 5.81377C2.30982 7.01573 1.91141 8.38415 1.87526 9.78572C1.83911 11.1874 2.16646 12.5745 2.82544 13.812L1.93914 16.4709C1.86573 16.6911 1.85508 16.9273 1.90838 17.1532C1.96168 17.379 2.07683 17.5856 2.24092 17.7496C2.405 17.9137 2.61156 18.0288 2.8374 18.0822C3.06326 18.1355 3.2995 18.1248 3.51964 18.0514L6.17852 17.1651C7.26766 17.7444 8.4745 18.068 9.70732 18.1112C10.9401 18.1545 12.1666 17.9163 13.2938 17.4148C14.4208 16.9132 15.4188 16.1616 16.2119 15.2168C17.0052 14.2719 17.5727 13.1589 17.8714 11.9619C18.1702 10.7651 18.1923 9.51585 17.9363 8.30908C17.6802 7.10235 17.1525 5.96981 16.3934 4.99746C15.6341 4.0251 14.6634 3.23846 13.5549 2.69726C12.4463 2.15606 11.229 1.87453 9.99543 1.87402ZM9.99543 16.8668C8.78743 16.8677 7.60057 16.5496 6.5549 15.9446C6.47834 15.9002 6.39321 15.8726 6.30517 15.8636C6.21713 15.8546 6.12818 15.8643 6.04421 15.8923L3.12373 16.8668L4.09748 13.9464C4.12555 13.8624 4.13547 13.7735 4.12659 13.6854C4.11771 13.5974 4.09022 13.5123 4.04595 13.4356C3.28848 12.1261 2.98435 10.6031 3.18076 9.10305C3.37717 7.60295 4.06312 6.20961 5.13221 5.13917C6.20131 4.06873 7.59377 3.38101 9.09362 3.18271C10.5934 2.98441 12.1167 3.2866 13.4273 4.04242C14.7379 4.79824 15.7624 5.96543 16.3419 7.36291C16.9214 8.76038 17.0236 10.3101 16.6324 11.7715C16.2414 13.233 15.3788 14.5245 14.1788 15.4458C12.9788 16.3671 11.5083 16.8666 9.99543 16.8668Z" fill="white"/>
</svg>
