<svg width="24" height="24" viewBox="0 0 24 24" fill="none" xmlns="http://www.w3.org/2000/svg">
<path opacity="0.2" d="M19.5 20.25H15L4.5 3.75H9L19.5 20.25Z" fill="#20408E"/>
<path d="M20.3889 19.8478L14.5201 10.6247L20.311 4.25438C20.442 4.10674 20.5095 3.91343 20.4989 3.71636C20.4883 3.51929 20.4005 3.33435 20.2544 3.20161C20.1084 3.06888 19.9159 2.99907 19.7187 3.00731C19.5215 3.01555 19.3355 3.10117 19.201 3.24562L13.6848 9.31312L9.88886 3.34781C9.82117 3.24127 9.72769 3.15353 9.61707 3.09274C9.50645 3.03194 9.38227 3.00004 9.25605 3H4.75605C4.62157 2.99993 4.48956 3.03603 4.37382 3.10449C4.25808 3.17296 4.16288 3.27129 4.09818 3.38918C4.03349 3.50707 4.00168 3.64018 4.00609 3.77458C4.01049 3.90898 4.05096 4.03973 4.12324 4.15313L9.99199 13.3753L4.20105 19.7503C4.13342 19.823 4.08089 19.9083 4.04649 20.0014C4.01209 20.0945 3.99651 20.1935 4.00065 20.2927C4.0048 20.3918 4.02858 20.4892 4.07063 20.5791C4.11267 20.669 4.17214 20.7496 4.24559 20.8164C4.31904 20.8831 4.405 20.9346 4.49851 20.9679C4.59201 21.0012 4.69119 21.0156 4.79029 21.0103C4.8894 21.0049 4.98646 20.98 5.07585 20.9369C5.16524 20.8937 5.24518 20.8333 5.31105 20.7591L10.8273 14.6916L14.6232 20.6569C14.6915 20.7625 14.7852 20.8494 14.8958 20.9093C15.0064 20.9693 15.1303 21.0005 15.256 21H19.756C19.8904 21 20.0222 20.9638 20.1378 20.8954C20.2534 20.827 20.3485 20.7288 20.4132 20.611C20.4779 20.4933 20.5097 20.3604 20.5054 20.2261C20.5012 20.0918 20.4609 19.9612 20.3889 19.8478ZM15.6676 19.5L6.12199 4.5H8.84074L18.3901 19.5H15.6676Z" fill="#20408E"/>
</svg>
